<svg width="198" height="51" viewBox="0 0 198 51" fill="none" xmlns="http://www.w3.org/2000/svg">
<ellipse cx="93.5" cy="25.5" rx="69.5" ry="25.5" fill="white"/>
<ellipse cx="93.5" cy="25.5" rx="69.5" ry="25.5" fill="#F8CFB3"/>
<path d="M24.672 16.152L20.28 33H15.312L12.624 21.912L9.84 33H4.872L0.6 16.152H4.992L7.416 28.416L10.416 16.152H14.928L17.808 28.416L20.256 16.152H24.672ZM28.7942 18.216C28.0742 18.216 27.4822 18.008 27.0182 17.592C26.5702 17.16 26.3462 16.632 26.3462 16.008C26.3462 15.368 26.5702 14.84 27.0182 14.424C27.4822 13.992 28.0742 13.776 28.7942 13.776C29.4982 13.776 30.0742 13.992 30.5222 14.424C30.9862 14.84 31.2182 15.368 31.2182 16.008C31.2182 16.632 30.9862 17.16 30.5222 17.592C30.0742 18.008 29.4982 18.216 28.7942 18.216ZM30.8342 19.608V33H26.7302V19.608H30.8342ZM41.9923 33L37.9123 27.384V33H33.8083V15.24H37.9123V25.056L41.9683 19.608H47.0323L41.4643 26.328L47.0803 33H41.9923ZM61.8683 19.608V33H57.7643V31.176C57.3483 31.768 56.7803 32.248 56.0603 32.616C55.3563 32.968 54.5723 33.144 53.7083 33.144C52.6843 33.144 51.7803 32.92 50.9963 32.472C50.2123 32.008 49.6043 31.344 49.1723 30.48C48.7403 29.616 48.5243 28.6 48.5243 27.432V19.608H52.6043V26.88C52.6043 27.776 52.8363 28.472 53.3003 28.968C53.7643 29.464 54.3883 29.712 55.1723 29.712C55.9723 29.712 56.6043 29.464 57.0683 28.968C57.5323 28.472 57.7643 27.776 57.7643 26.88V19.608H61.8683ZM70.2641 33.192C69.0961 33.192 68.0561 32.992 67.1441 32.592C66.2321 32.192 65.5121 31.648 64.9841 30.96C64.4561 30.256 64.1601 29.472 64.0961 28.608H68.1521C68.2001 29.072 68.4161 29.448 68.8001 29.736C69.1841 30.024 69.6561 30.168 70.2161 30.168C70.7281 30.168 71.1201 30.072 71.3921 29.88C71.6801 29.672 71.8241 29.408 71.8241 29.088C71.8241 28.704 71.6241 28.424 71.2241 28.248C70.8241 28.056 70.1761 27.848 69.2801 27.624C68.3201 27.4 67.5201 27.168 66.8801 26.928C66.2401 26.672 65.6881 26.28 65.2241 25.752C64.7601 25.208 64.5281 24.48 64.5281 23.568C64.5281 22.8 64.7361 22.104 65.1521 21.48C65.5841 20.84 66.2081 20.336 67.0241 19.968C67.8561 19.6 68.8401 19.416 69.9761 19.416C71.6561 19.416 72.9761 19.832 73.9361 20.664C74.9121 21.496 75.4721 22.6 75.6161 23.976H71.8241C71.7601 23.512 71.5521 23.144 71.2001 22.872C70.8641 22.6 70.4161 22.464 69.8561 22.464C69.3761 22.464 69.0081 22.56 68.7521 22.752C68.4961 22.928 68.3681 23.176 68.3681 23.496C68.3681 23.88 68.5681 24.168 68.9681 24.36C69.3841 24.552 70.0241 24.744 70.8881 24.936C71.8801 25.192 72.6881 25.448 73.3121 25.704C73.9361 25.944 74.4801 26.344 74.9441 26.904C75.4241 27.448 75.6721 28.184 75.6881 29.112C75.6881 29.896 75.4641 30.6 75.0161 31.224C74.5841 31.832 73.9521 32.312 73.1201 32.664C72.3041 33.016 71.3521 33.192 70.2641 33.192ZM77.3829 26.28C77.3829 24.904 77.6389 23.696 78.1509 22.656C78.6789 21.616 79.3909 20.816 80.2869 20.256C81.1829 19.696 82.1829 19.416 83.2869 19.416C84.2309 19.416 85.0549 19.608 85.7589 19.992C86.4789 20.376 87.0309 20.88 87.4149 21.504V19.608H91.5189V33H87.4149V31.104C87.0149 31.728 86.4549 32.232 85.7349 32.616C85.0309 33 84.2069 33.192 83.2629 33.192C82.1749 33.192 81.1829 32.912 80.2869 32.352C79.3909 31.776 78.6789 30.968 78.1509 29.928C77.6389 28.872 77.3829 27.656 77.3829 26.28ZM87.4149 26.304C87.4149 25.28 87.1269 24.472 86.5509 23.88C85.9909 23.288 85.3029 22.992 84.4869 22.992C83.6709 22.992 82.9749 23.288 82.3989 23.88C81.8389 24.456 81.5589 25.256 81.5589 26.28C81.5589 27.304 81.8389 28.12 82.3989 28.728C82.9749 29.32 83.6709 29.616 84.4869 29.616C85.3029 29.616 85.9909 29.32 86.5509 28.728C87.1269 28.136 87.4149 27.328 87.4149 26.304ZM111.576 19.464C113.24 19.464 114.56 19.968 115.536 20.976C116.528 21.984 117.024 23.384 117.024 25.176V33H112.944V25.728C112.944 24.864 112.712 24.2 112.248 23.736C111.8 23.256 111.176 23.016 110.376 23.016C109.576 23.016 108.944 23.256 108.48 23.736C108.032 24.2 107.808 24.864 107.808 25.728V33H103.728V25.728C103.728 24.864 103.496 24.2 103.032 23.736C102.584 23.256 101.96 23.016 101.16 23.016C100.36 23.016 99.728 23.256 99.264 23.736C98.816 24.2 98.592 24.864 98.592 25.728V33H94.488V19.608H98.592V21.288C99.008 20.728 99.552 20.288 100.224 19.968C100.896 19.632 101.656 19.464 102.504 19.464C103.512 19.464 104.408 19.68 105.192 20.112C105.992 20.544 106.616 21.16 107.064 21.96C107.528 21.224 108.16 20.624 108.96 20.16C109.76 19.696 110.632 19.464 111.576 19.464ZM119.078 26.28C119.078 24.904 119.334 23.696 119.846 22.656C120.374 21.616 121.086 20.816 121.982 20.256C122.878 19.696 123.878 19.416 124.982 19.416C125.926 19.416 126.75 19.608 127.454 19.992C128.174 20.376 128.726 20.88 129.11 21.504V19.608H133.214V33H129.11V31.104C128.71 31.728 128.15 32.232 127.43 32.616C126.726 33 125.902 33.192 124.958 33.192C123.87 33.192 122.878 32.912 121.982 32.352C121.086 31.776 120.374 30.968 119.846 29.928C119.334 28.872 119.078 27.656 119.078 26.28ZM129.11 26.304C129.11 25.28 128.822 24.472 128.246 23.88C127.686 23.288 126.998 22.992 126.182 22.992C125.366 22.992 124.67 23.288 124.094 23.88C123.534 24.456 123.254 25.256 123.254 26.28C123.254 27.304 123.534 28.12 124.094 28.728C124.67 29.32 125.366 29.616 126.182 29.616C126.998 29.616 127.686 29.32 128.246 28.728C128.822 28.136 129.11 27.328 129.11 26.304ZM140.573 24.552C140.573 22.888 140.933 21.408 141.653 20.112C142.373 18.8 143.373 17.784 144.653 17.064C145.949 16.328 147.413 15.96 149.045 15.96C151.045 15.96 152.757 16.488 154.181 17.544C155.605 18.6 156.557 20.04 157.037 21.864H152.525C152.189 21.16 151.709 20.624 151.085 20.256C150.477 19.888 149.781 19.704 148.997 19.704C147.733 19.704 146.709 20.144 145.925 21.024C145.141 21.904 144.749 23.08 144.749 24.552C144.749 26.024 145.141 27.2 145.925 28.08C146.709 28.96 147.733 29.4 148.997 29.4C149.781 29.4 150.477 29.216 151.085 28.848C151.709 28.48 152.189 27.944 152.525 27.24H157.037C156.557 29.064 155.605 30.504 154.181 31.56C152.757 32.6 151.045 33.12 149.045 33.12C147.413 33.12 145.949 32.76 144.653 32.04C143.373 31.304 142.373 30.288 141.653 28.992C140.933 27.696 140.573 26.216 140.573 24.552ZM158.735 26.28C158.735 24.904 158.991 23.696 159.503 22.656C160.031 21.616 160.743 20.816 161.639 20.256C162.535 19.696 163.535 19.416 164.639 19.416C165.583 19.416 166.407 19.608 167.111 19.992C167.831 20.376 168.383 20.88 168.767 21.504V19.608H172.871V33H168.767V31.104C168.367 31.728 167.807 32.232 167.087 32.616C166.383 33 165.559 33.192 164.615 33.192C163.527 33.192 162.535 32.912 161.639 32.352C160.743 31.776 160.031 30.968 159.503 29.928C158.991 28.872 158.735 27.656 158.735 26.28ZM168.767 26.304C168.767 25.28 168.479 24.472 167.903 23.88C167.343 23.288 166.655 22.992 165.839 22.992C165.023 22.992 164.327 23.288 163.751 23.88C163.191 24.456 162.911 25.256 162.911 26.28C162.911 27.304 163.191 28.12 163.751 28.728C164.327 29.32 165.023 29.616 165.839 29.616C166.655 29.616 167.343 29.32 167.903 28.728C168.479 28.136 168.767 27.328 168.767 26.304ZM182.56 23.016H180.352V33H176.248V23.016H174.76V19.608H176.248V19.224C176.248 17.576 176.72 16.328 177.664 15.48C178.608 14.616 179.992 14.184 181.816 14.184C182.12 14.184 182.344 14.192 182.488 14.208V17.688C181.704 17.64 181.152 17.752 180.832 18.024C180.512 18.296 180.352 18.784 180.352 19.488V19.608H182.56V23.016ZM197.112 26.088C197.112 26.472 197.088 26.872 197.04 27.288H187.752C187.816 28.12 188.08 28.76 188.544 29.208C189.024 29.64 189.608 29.856 190.296 29.856C191.32 29.856 192.032 29.424 192.432 28.56H196.8C196.576 29.44 196.168 30.232 195.576 30.936C195 31.64 194.272 32.192 193.392 32.592C192.512 32.992 191.528 33.192 190.44 33.192C189.128 33.192 187.96 32.912 186.936 32.352C185.912 31.792 185.112 30.992 184.536 29.952C183.96 28.912 183.672 27.696 183.672 26.304C183.672 24.912 183.952 23.696 184.512 22.656C185.088 21.616 185.888 20.816 186.912 20.256C187.936 19.696 189.112 19.416 190.44 19.416C191.736 19.416 192.888 19.688 193.896 20.232C194.904 20.776 195.688 21.552 196.248 22.56C196.824 23.568 197.112 24.744 197.112 26.088ZM192.912 25.008C192.912 24.304 192.672 23.744 192.192 23.328C191.712 22.912 191.112 22.704 190.392 22.704C189.704 22.704 189.12 22.904 188.64 23.304C188.176 23.704 187.888 24.272 187.776 25.008H192.912ZM193.2 16.176L187.416 18.6V15.768L193.2 12.984V16.176Z" fill="#222222"/>
</svg>
