<svg width="20" height="21" viewBox="0 0 20 21" fill="none" xmlns="http://www.w3.org/2000/svg">
<path opacity="0.4" d="M14.0755 0.0131836H17.4615C18.8637 0.0131836 20 1.15904 20 2.57315V5.98771C20 7.40182 18.8637 8.54767 17.4615 8.54767H14.0755C12.6732 8.54767 11.537 7.40182 11.537 5.98771V2.57315C11.537 1.15904 12.6732 0.0131836 14.0755 0.0131836" fill="#EA6A12"/>
<path fill-rule="evenodd" clip-rule="evenodd" d="M2.53852 0.0131836H5.92449C7.32676 0.0131836 8.46301 1.15904 8.46301 2.57315V5.98771C8.46301 7.40182 7.32676 8.54767 5.92449 8.54767H2.53852C1.13626 8.54767 0 7.40182 0 5.98771V2.57315C0 1.15904 1.13626 0.0131836 2.53852 0.0131836ZM2.53852 11.4787H5.92449C7.32676 11.4787 8.46301 12.6245 8.46301 14.0387V17.4532C8.46301 18.8664 7.32676 20.0132 5.92449 20.0132H2.53852C1.13626 20.0132 0 18.8664 0 17.4532V14.0387C0 12.6245 1.13626 11.4787 2.53852 11.4787ZM17.4615 11.4787H14.0755C12.6732 11.4787 11.537 12.6245 11.537 14.0387V17.4532C11.537 18.8664 12.6732 20.0132 14.0755 20.0132H17.4615C18.8637 20.0132 20 18.8664 20 17.4532V14.0387C20 12.6245 18.8637 11.4787 17.4615 11.4787Z" fill="#EA6A12"/>
</svg>
