<svg width="663" height="663" viewBox="0 0 663 663" fill="none" xmlns="http://www.w3.org/2000/svg">
<path d="M522.117 296.186C527.554 274.879 529.385 252.812 527.535 230.901L526.463 218.209C516.519 201.636 511.547 180.091 497.184 165.728C482.821 151.365 461.276 146.393 443.599 136.45C426.474 125.953 411.558 109.933 392.223 104.961C372.888 99.9893 351.343 106.066 331.456 106.066C311.569 106.066 290.024 99.9893 270.689 104.961C251.354 109.933 236.439 125.953 218.761 135.897C201.636 146.393 180.091 151.365 165.728 165.728C151.365 180.091 146.393 201.636 136.449 219.314C125.953 236.439 109.933 251.354 104.961 270.689C99.9891 290.024 106.066 311.569 106.066 331.456C106.066 351.344 99.4366 372.336 104.961 392.223C109.933 411.558 125.953 426.474 135.897 444.151C146.393 461.277 151.365 482.821 165.728 497.184C180.091 511.548 201.636 516.519 219.313 526.463C236.991 536.407 251.907 552.427 271.241 557.399C290.576 562.371 312.121 556.294 332.008 556.294C351.896 556.294 372.888 562.923 392.775 557.399C412.11 552.427 427.026 536.407 444.704 526.463C461.276 516.519 482.821 511.548 497.184 497.184C511.547 482.821 530.33 440.837 530.33 440.837L521.999 392.5V353L513.999 328L522.117 296.186Z" fill="#DDA85F"/>
<path d="M513.869 293.494C516.243 281.193 517.438 268.693 517.438 256.165L517.438 225.503C508.214 210.131 503.602 190.146 490.279 176.823C476.957 163.5 456.972 158.889 440.575 149.665C424.69 139.929 410.854 125.069 392.92 120.457C374.985 115.845 355.001 121.482 336.554 121.482C318.107 121.482 298.122 115.845 280.188 120.457C262.253 125.069 248.418 139.929 232.02 149.153C216.135 158.889 196.151 163.5 182.828 176.823C169.505 190.146 164.893 210.131 155.67 226.528C145.934 242.413 131.074 256.248 126.462 274.183C121.85 292.118 127.487 312.102 127.487 330.549C127.487 348.996 121.338 368.468 126.462 386.915C131.074 404.85 145.934 418.685 155.157 435.083C164.893 450.968 169.505 470.952 182.828 484.275C196.151 497.598 216.135 502.209 232.533 511.433C248.93 520.657 262.765 535.517 280.7 540.128C298.635 544.74 318.619 539.104 337.066 539.104C355.513 539.104 374.985 545.253 393.432 540.128C411.367 535.517 425.202 520.657 441.6 511.433C456.972 502.209 476.957 497.598 490.279 484.275C503.602 470.952 521.025 432.008 521.025 432.008L512.999 390.5L512.999 350.5L507.499 326.5L513.869 293.494Z" fill="#F2CB7D"/>
<path d="M291.461 168.623C277.625 172.21 269.427 195.781 275.063 210.641C283.774 231.65 291.461 241.386 316.569 234.725C325.28 232.163 344.24 221.402 346.289 216.278C349.364 209.104 350.901 190.144 345.265 184.508C328.867 169.135 301.197 166.061 291.461 168.623Z" fill="#6D4934"/>
<path d="M294.024 171.186C284.288 173.748 275.065 201.419 288.9 212.18C307.859 227.04 341.167 190.658 333.993 183.484C321.695 171.186 301.198 169.136 294.024 171.186Z" fill="#A37F6A"/>
<path d="M367.811 434.569C377.034 439.694 394.969 432.007 399.581 421.247C406.754 404.849 407.267 395.113 390.357 385.377C384.208 382.303 367.811 377.178 364.224 378.716C358.587 381.278 347.314 390.501 347.314 396.65C347.314 414.073 361.149 430.982 367.811 434.569Z" fill="#6D4934"/>
<path d="M372.933 415.097C380.107 419.196 406.24 410.485 398.041 400.237C384.718 381.79 364.734 377.178 357.56 387.426C350.386 397.675 367.808 412.022 372.933 415.097Z" fill="#A37F6A"/>
<path d="M236.118 358.218C240.73 350.531 234.069 334.646 223.82 330.547C209.472 324.398 201.274 323.373 193.075 338.746C190.001 343.87 185.901 358.218 187.951 361.292C190.001 366.416 198.199 375.64 203.323 375.64C218.184 376.152 232.531 363.854 236.118 358.218Z" fill="#6D4934"/>
<path d="M232.018 344.896C235.605 339.259 207.422 324.399 201.273 334.648C191.537 352.582 189.487 354.632 194.099 358.219C203.835 363.856 228.943 348.995 232.018 344.896Z" fill="#A37F6A"/>
<path d="M467.732 395.115C460.046 390.503 444.161 397.164 440.062 407.413C433.913 421.76 442.111 433.034 458.509 438.158C472.344 442.77 489.254 426.885 489.766 421.248C489.766 405.875 473.369 398.702 467.732 395.115Z" fill="#6D4934"/>
<path d="M459.534 398.186C452.872 398.698 435.962 410.484 445.698 416.12C463.633 425.856 487.204 421.757 483.105 413.558C477.981 403.31 467.22 397.673 459.534 398.186Z" fill="#A37F6A"/>
<path d="M477.732 265.115C470.046 260.503 454.161 267.164 450.062 277.413C443.913 291.76 452.111 303.034 468.509 308.158C482.344 312.77 499.254 296.885 499.766 291.248C499.766 275.875 483.369 268.702 477.732 265.115Z" fill="#6D4934"/>
<path d="M469.534 268.186C462.872 268.698 445.962 280.484 455.698 286.12C473.633 295.856 497.204 291.757 493.105 283.558C487.981 273.31 477.22 267.673 469.534 268.186Z" fill="#A37F6A"/>
<path d="M370.518 201.686L390.81 201.686L390.81 221.978L370.518 221.978L370.518 201.686Z" fill="#6D4934"/>
<path d="M240.337 249.53L260.623 249.525L260.628 269.811L240.342 269.816L240.337 249.53Z" fill="#DDA85F"/>
<path d="M284.733 410.021H305.024V430.313H284.733V410.021Z" fill="#DDA85F"/>
<path d="M299.398 368.094H326.935V395.631H299.398V368.094Z" fill="#DDA85F"/>
<path d="M412.745 179.504L440.282 179.504L440.282 207.041L412.745 207.041L412.745 179.504Z" fill="#DDA85F"/>
<path d="M309.779 450.81L330.071 450.81L330.071 471.102L309.779 471.102L309.779 450.81Z" fill="#6D4934"/>
<path d="M407.576 434.519L427.868 434.519L427.868 454.811L407.576 454.811L407.576 434.519Z" fill="#6D4934"/>
<path d="M367.576 294.519L387.868 294.519L387.868 314.811L367.576 314.811L367.576 294.519Z" fill="#6D4934"/>
<path d="M424.559 343.095L434.705 343.095L434.705 353.241L424.559 353.241L424.559 343.095Z" fill="#6D4934"/>
<path d="M210.805 269.015L220.95 269.015L220.95 279.161L210.804 279.161L210.805 269.015Z" fill="#6D4934"/>
</svg>
