<svg width="454" height="500" viewBox="0 0 454 500" fill="none" xmlns="http://www.w3.org/2000/svg">
<path d="M261.969 499.997C259.403 500.029 256.858 499.527 254.494 498.522C252.13 497.517 249.997 496.032 248.23 494.158C246.447 492.4 245.04 490.294 244.095 487.969C243.15 485.643 242.688 483.149 242.735 480.637V407.806H19.2622C16.7669 407.854 14.2883 407.388 11.9784 406.437C9.66849 405.486 7.57593 404.069 5.82937 402.275C3.96814 400.497 2.49247 398.35 1.49429 395.971C0.496114 393.591 -0.00216757 391.029 0.0297013 388.446V312.85C-0.347135 301.873 2.87054 291.075 9.18805 282.12L221.365 12.9231C224.554 8.74522 228.487 5.2021 232.966 2.47495C237.645 0.704786 242.623 -0.130313 247.62 0.0164784H354.777C357.3 -0.0299884 359.804 0.466848 362.121 1.47384C364.437 2.48083 366.514 3.97478 368.21 5.85529C370.034 7.5981 371.488 9.69451 372.485 12.0184C373.482 14.3422 374.001 16.8452 374.011 19.3764V293.49H435.069C440.136 293.579 444.962 295.677 448.501 299.329C450.283 301.087 451.691 303.193 452.635 305.518C453.58 307.843 454.044 310.338 453.997 312.85V388.446C454.037 393.603 452.063 398.569 448.501 402.275C446.733 404.041 444.637 405.439 442.332 406.388C440.027 407.337 437.559 407.819 435.069 407.806H374.011V480.637C374.001 483.168 373.482 485.671 372.485 487.995C371.488 490.319 370.034 492.415 368.21 494.158C366.514 496.039 364.437 497.532 362.121 498.539C359.804 499.546 357.3 500.043 354.777 499.997H261.969ZM247.62 293.49V162.272L144.126 293.49H247.62Z" fill="#EA6A12"/>
</svg>
