<svg width="100" height="20" viewBox="0 0 100 20" fill="none" xmlns="http://www.w3.org/2000/svg">
<path d="M9.04458 3.09181C9.33495 2.15214 10.665 2.15213 10.9554 3.09181L12.1429 6.93456C12.2724 7.35357 12.6598 7.63932 13.0983 7.63932H17.0437C18.0002 7.63932 18.4109 8.8533 17.6508 9.43397L14.374 11.9372C14.0409 12.1916 13.9019 12.6267 14.0256 13.0271L15.2566 17.0108C15.5441 17.941 14.4678 18.6918 13.6941 18.1007L10.6071 15.7424C10.2487 15.4686 9.75134 15.4686 9.39294 15.7424L6.30585 18.1007C5.53216 18.6918 4.45591 17.941 4.74337 17.0108L5.9744 13.0271C6.09813 12.6267 5.95906 12.1916 5.62604 11.9372L2.34923 9.43398C1.58912 8.8533 1.99976 7.63932 2.9563 7.63932H6.90168C7.34024 7.63932 7.72762 7.35357 7.8571 6.93456L9.04458 3.09181Z" fill="white"/>
<path d="M29.0446 3.09181C29.335 2.15214 30.665 2.15213 30.9554 3.09181L32.1429 6.93456C32.2724 7.35357 32.6598 7.63932 33.0983 7.63932H37.0437C38.0002 7.63932 38.4109 8.8533 37.6508 9.43397L34.374 11.9372C34.0409 12.1916 33.9019 12.6267 34.0256 13.0271L35.2566 17.0108C35.5441 17.941 34.4678 18.6918 33.6941 18.1007L30.6071 15.7424C30.2487 15.4686 29.7513 15.4686 29.3929 15.7424L26.3059 18.1007C25.5322 18.6918 24.4559 17.941 24.7434 17.0108L25.9744 13.0271C26.0981 12.6267 25.9591 12.1916 25.626 11.9372L22.3492 9.43398C21.5891 8.8533 21.9998 7.63932 22.9563 7.63932H26.9017C27.3402 7.63932 27.7276 7.35357 27.8571 6.93456L29.0446 3.09181Z" fill="white"/>
<path d="M49.0446 3.09181C49.335 2.15214 50.665 2.15213 50.9554 3.09181L52.1429 6.93456C52.2724 7.35357 52.6598 7.63932 53.0983 7.63932H57.0437C58.0002 7.63932 58.4109 8.8533 57.6508 9.43397L54.374 11.9372C54.0409 12.1916 53.9019 12.6267 54.0256 13.0271L55.2566 17.0108C55.5441 17.941 54.4678 18.6918 53.6941 18.1007L50.6071 15.7424C50.2487 15.4686 49.7513 15.4686 49.3929 15.7424L46.3059 18.1007C45.5322 18.6918 44.4559 17.941 44.7434 17.0108L45.9744 13.0271C46.0981 12.6267 45.9591 12.1916 45.626 11.9372L42.3492 9.43398C41.5891 8.8533 41.9998 7.63932 42.9563 7.63932H46.9017C47.3402 7.63932 47.7276 7.35357 47.8571 6.93456L49.0446 3.09181Z" fill="white"/>
<path d="M69.5223 3.23944C69.6675 2.76959 70.3325 2.7696 70.4777 3.23943L71.6652 7.08218C71.8594 7.71069 72.4405 8.13932 73.0983 8.13932H77.0437C77.522 8.13932 77.7273 8.74631 77.3472 9.03665L74.0704 11.5399C73.5709 11.9215 73.3623 12.5741 73.5479 13.1747L74.7789 17.1584C74.9226 17.6236 74.3845 17.9989 73.9977 17.7034L70.9106 15.3451C70.373 14.9344 69.627 14.9344 69.0894 15.3451L66.0023 17.7034C65.6155 17.9989 65.0774 17.6235 65.2211 17.1584L66.4521 13.1747C66.6377 12.5741 66.4291 11.9215 65.9296 11.5399L62.6528 9.03665C62.2727 8.74631 62.478 8.13932 62.9563 8.13932H66.9017C67.5595 8.13932 68.1406 7.7107 68.3348 7.08218L69.5223 3.23944Z" stroke="white"/>
<path d="M89.5223 3.23944C89.6675 2.76959 90.3325 2.7696 90.4777 3.23943L91.6652 7.08218C91.8594 7.71069 92.4405 8.13932 93.0983 8.13932H97.0437C97.522 8.13932 97.7273 8.74631 97.3472 9.03665L94.0704 11.5399C93.5709 11.9215 93.3623 12.5741 93.5479 13.1747L94.7789 17.1584C94.9226 17.6236 94.3845 17.9989 93.9977 17.7034L90.9106 15.3451C90.373 14.9344 89.627 14.9344 89.0894 15.3451L86.0023 17.7034C85.6155 17.9989 85.0774 17.6235 85.2211 17.1584L86.4521 13.1747C86.6377 12.5741 86.4291 11.9215 85.9296 11.5399L82.6528 9.03665C82.2727 8.74631 82.478 8.13932 82.9563 8.13932H86.9017C87.5595 8.13932 88.1406 7.7107 88.3348 7.08218L89.5223 3.23944Z" stroke="white"/>
</svg>
